PathFileType	4	(X/Y/Z)	D:\Share\Shared_Data\Ergonomics\Sit To Stand Pertubation\S2\Perturbed.trc
DataRate	CameraRate	NumFrames	NumMarkers	Units	OrigDataRate	OrigDataStartFrame	OrigNumFrames	
100	100	8	18	m	100	14373	221
Frame#	Time	R_Toe			R_ASIS			R_Pelvis			V_Sacral			L_Pelvis			L_ASIS			Clavical			R_Acromium			L_Acromium			Sternum			Torso			R_Thigh_Med			R_Thigh_Lat			R_Thigh			R_Shank_Med			R_Shank_Lat			R_Shank			R_Heel			
		X1	Y1	Z1	X2	Y2	Z2	X3	Y3	Z3	X4	Y4	Z4	X5	Y5	Z5	X6	Y6	Z6	X7	Y7	Z7	X8	Y8	Z8	X9	Y9	Z9	X10	Y10	Z10	X11	Y11	Z11	X12	Y12	Z12	X13	Y13	Z13	X14	Y14	Z14	X15	Y15	Z15	X16	Y16	Z16	X17	Y17	Z17	X18	Y18	Z18	

14373	143.72	0.43244244	0.071992271	0.14760071	0.14464253	0.7539444	0.12577374	0.08368586	0.80126892	0.17244849	-0.067897591	0.82023242	0.017457605	0.046676895	0.824237	-0.16388316	0.13094427	0.77398358	-0.14031119	0.45421109	0.97870905	-0.0049399962	0.40707666	1.0809802	0.19162932	0.41384128	1.0681802	-0.19602423	0.36405823	0.84088489	0.0015587181	0.43147849	0.94339917	-0.11205265	0.42882785	0.48377573	0.1250471	0.40073343	0.49899167	0.22618047	0.30583002	0.66805133	0.18005322	0.30101312	0.11140337	0.11061931	0.27653342	0.096891106	0.20250838	0.36327383	0.3495159	0.23890094	0.19538052	0.058475872	0.14568042
14374	143.73	0.43248764	0.071670418	0.14745299	0.14796671	0.76046802	0.12626849	0.087324516	0.80814404	0.17299046	-0.064248856	0.82809424	0.018116245	0.049750248	0.83111346	-0.16349866	0.13400867	0.78054962	-0.13956551	0.45658536	0.98856842	-0.0044729962	0.40894455	1.0905803	0.19209991	0.41543414	1.0775194	-0.195601	0.3667186	0.85049689	0.0022327912	0.43369519	0.95297748	-0.11169305	0.4287944	0.48371265	0.12395984	0.40118552	0.49921799	0.224993	0.30909299	0.66984406	0.17973172	0.30105804	0.11131409	0.11048858	0.27661597	0.096927658	0.20242271	0.36335391	0.34985013	0.23816614	0.1953835	0.058507824	0.14568867
14375	143.74	0.43255649	0.071290825	0.14733546	0.15132574	0.76704736	0.1268138	0.090974037	0.81498065	0.1735453	-0.060600086	0.83583502	0.018787291	0.052790062	0.83792529	-0.16311267	0.13712154	0.78728961	-0.13888417	0.45885944	0.99856335	-0.0040350599	0.41070947	1.1002554	0.19257214	0.41689893	1.0870475	-0.19518651	0.36930682	0.86022821	0.0028695266	0.43581906	0.96271954	-0.1113988	0.42870007	0.48367767	0.12289507	0.40156949	0.4994581	0.22381293	0.31232516	0.6715799	0.17942351	0.30113391	0.11121861	0.11034913	0.27672198	0.096971336	0.20231927	0.36339191	0.35019949	0.23743047	0.19539552	0.058553616	0.14568909
14376	143.75	0.43264035	0.070901215	0.14724716	0.15472636	0.7736427	0.1273819	0.09464209	0.82176831	0.17410742	-0.056944046	0.84344385	0.019464432	0.055817963	0.84466321	-0.16272633	0.14028433	0.79417426	-0.13827486	0.46100482	1.008689	-0.0036377525	0.41236789	1.1099834	0.1930455	0.41823132	1.0967677	-0.19478804	0.3718746	0.87004535	0.0034332461	0.43787048	0.97261896	-0.11118016	0.42853885	0.48366418	0.12185829	0.40188696	0.49970789	0.22264386	0.31553345	0.67325977	0.17913461	0.30122482	0.11112177	0.11020854	0.27683984	0.097017807	0.20220827	0.36338617	0.35055975	0.23669955	0.1954122	0.058605423	0.14568567
14377	143.76	0.43273138	0.070549507	0.14718398	0.15817714	0.7802196	0.12794895	0.098334412	0.82849805	0.17467265	-0.0532742	0.85091602	0.020137949	0.058851353	0.85132135	-0.16234494	0.14349774	0.80116296	-0.13773253	0.46300122	1.0189383	-0.0032871752	0.41391647	1.1197443	0.19351933	0.41942648	1.1066725	-0.19440779	0.37446866	0.87991785	0.0038999574	0.43986826	0.98266577	-0.11103721	0.42830249	0.48366589	0.120856	0.4021394	0.49996439	0.22148843	0.31872101	0.67488367	0.178866	0.3013132	0.11102827	0.11007441	0.2769549	0.0970625	0.20210017	0.36333356	0.35092712	0.23598068	0.19542891	0.058654404	0.14568327
14378	143.77	0.43282578	0.07026564	0.14713774	0.16168521	0.78675885	0.12849989	0.10205412	0.83516296	0.17523875	-0.049585579	0.85824988	0.020796131	0.061901714	0.85789825	-0.16197472	0.14676338	0.80821362	-0.1372462	0.46484464	1.0293009	-0.0029837034	0.41535367	1.1295195	0.1939924	0.4204791	1.1167441	-0.19404398	0.37712268	0.88982098	0.0042594781	0.44182751	0.99284955	-0.11095753	0.42798517	0.4836792	0.11989579	0.40232782	0.50022589	0.22034982	0.32188596	0.67645074	0.17861435	0.30138574	0.11094128	0.10995183	0.27705475	0.097102577	0.20200226	0.36323215	0.35129926	0.23528293	0.19544237	0.058694031	0.14568599
14379	143.78	0.43292471	0.070051865	0.14709789	0.16525468	0.79325391	0.12902748	0.10580135	0.84175873	0.17580531	-0.045875629	0.86544403	0.021430454	0.064975578	0.86439514	-0.16162206	0.15008331	0.81528973	-0.13680334	0.46654416	1.0397643	-0.0027236145	0.41667963	1.1392933	0.19446373	0.42138458	1.1269565	-0.1936926	0.37985355	0.89973767	0.0045146813	0.44375891	1.0031584	-0.11092238	0.42758878	0.48370563	0.11898577	0.40245209	0.50049203	0.21923277	0.32502234	0.67795917	0.17837511	0.30143817	0.11086131	0.10984083	0.27713458	0.097138519	0.20191534	0.36308353	0.35167453	0.23461555	0.1954519	0.058722668	0.14569525
14380	143.79	0.43303323	0.069885963	0.14705556	0.16888612	0.79970551	0.12952953	0.10957385	0.84828253	0.17637149	-0.042144722	0.87249823	0.022039452	0.068076141	0.87081329	-0.16129385	0.15345775	0.82236133	-0.13639348	0.46811548	1.0503135	-0.0025015948	0.41789584	1.1490524	0.19493359	0.42214053	1.1372823	-0.19334837	0.38266187	0.90965906	0.0046781673	0.44566751	1.0135778	-0.11091456	0.42712585	0.48375388	0.11813363	0.40250952	0.50076343	0.21814413	0.32812079	0.67940686	0.17814622	0.30147647	0.1107866	0.1097356	0.27719803	0.097174278	0.20183319	0.36289258	0.35205145	0.23398595	0.19545961	0.058744125	0.1457093
